{"title":"Iron Man 3-camrip 2013-Inferno","uid":8425560,"size":1130184427,"categoryP":"video","categoryS":"movies","magnet":"?xt=urn:btih:bee75415be3ba068914ee8cb6024265654f2ebfa&amp;dn=Iron+Man+3-camrip+2013-Inferno&amp;tr=udp%3A%2F%2Ftracker.openbittorrent.com%3A80&amp;tr=udp%3A%2F%2Fopen.demonii.com%3A1337&amp;tr=udp%3A%2F%2Ftracker.coppersurfer.tk%3A6969&amp;tr=udp%3A%2F%2Fexodus.desync.com%3A6969","seeders":0,"leechers":0,"uploader":"R0thschild","files":5,"time":1367334891,"description":"--------------------------------------------\n\nFormat : AVI \nFormat/Info : Audio Video Interleave \nFile size : 1.05 GiB \nDuration : 1h 57mn \nOverall bit rate : 1 238 Kbps \nWriting library : VirtualDub build 32842/release \n\nVideo \nFormat : AVC \nFormat/Info : Advanced Video Codec \nFormat profile : &lt;a class=&quot;__cf_email__&quot; href=&quot;/cdn-cgi/l/email-protection&quot; data-cfemail=&quot;8ec6e7e9e6cec2baa0bf&quot;&gt;[email&amp;#160;protected]&lt;/a&gt;&lt;script data-cfhash='f9e31' type=&quot;text/javascript&quot;&gt;\n/* &lt;![CDATA[ */!function(){try{var t=&quot;currentScript&quot;in document?document.currentScript:function(){for(var t=document.getElementsByTagName(&quot;script&quot;),e=t.length;e--;)if(t[e].getAttribute(&quot;data-cfhash&quot;))return t[e]}();if(t&amp;&amp;t.previousSibling){var e,r,n,i,c=t.previousSibling,a=c.getAttribute(&quot;data-cfemail&quot;);if(a){for(e=&quot;&quot;,r=parseInt(a.substr(0,2),16),n=2;a.length-n;n+=2)i=parseInt(a.substr(n,2),16)^r,e+=String.fromCharCode(i);e=document.createTextNode(e),c.parentNode.replaceChild(e,c)}t.parentNode.removeChild(t);}}catch(u){}}()/* ]]&gt; */&lt;/script&gt; \nFormat settings, CABAC : Yes \nFormat settings, ReFrames : 4 frames \nCodec ID : AVC1 \nDuration : 1h 57mn \nBit rate : 1 101 Kbps \nWidth : 704 pixels \nHeight : 276 pixels \nDisplay aspect ratio : 2.551 \nFrame rate : 25.000 fps \nColor space : YUV \nChroma subsampling : 4:2:0 \nBit depth : 8 bits \nScan type : Progressive \nBits/(Pixel*Frame) : 0.227 \nStream size : 926 MiB (89%) \n\nAudio \nID : 1 \nFormat : MPEG Audio \nFormat version : Version 1 \nFormat profile : Layer 3 \nMode : Joint stereo \nCodec ID : 55 \nCodec ID/Hint : MP3 \nDuration : 1h 57mn \nBit rate mode : Constant \nBit rate : 128 Kbps \nChannel(s) : 2 channels \nSampling rate : 48.0 KHz \nCompression mode : Lossy \nDelay relative to video : 3ms \nStream size : 108 MiB (10%) \nAlignment : Split accross interleaves \nInterleave, duration : 40 ms (1.00 video frame) \nInterleave, preload duration : 500 ms\nGenre : Action, Adventure, Sci-Fi\n\nIMDb : http://www.imdb.com/title/tt1300854/\n\n--------------------------------------------\n\nMore at   &lt;a href=&quot;\nhttp://publichash.com/&quot; rel=&quot;nofollow&quot; target=&quot;_NEW&quot;&gt;\nhttp://publichash.com/&lt;/a&gt;\n\n--------------------------------------------","torrent":{"xt":"urn:btih:bee75415be3ba068914ee8cb6024265654f2ebfa","amp;dn":"Iron+Man+3-camrip+2013-Inferno","amp;tr":["udp%3A%2F%2Ftracker.openbittorrent.com%3A80","udp%3A%2F%2Fopen.demonii.com%3A1337","udp%3A%2F%2Ftracker.coppersurfer.tk%3A6969","udp%3A%2F%2Fexodus.desync.com%3A6969"],"infoHash":"bee75415be3ba068914ee8cb6024265654f2ebfa","infoHashBuffer":{"type":"Buffer","data":[190,231,84,21,190,59,160,104,145,78,232,203,96,36,38,86,84,242,235,250]},"announce":[],"urlList":[]}}